<svg id="Слой_1" data-name="Слой 1" xmlns="http://www.w3.org/2000/svg" viewBox="0 0 100 100"><defs><style>.cls-1{fill:#fff;}</style></defs><title>bus</title><path class="cls-1" d="M86.4,18H29.78c-7.24,0-13.12,5.4-13.12,12V42H8.45a8,8,0,0,0-8,8v15.7a8,8,0,0,0,8,8h5A11.92,11.92,0,0,0,24.67,82a11.8,11.8,0,0,0,11.17-8H64.62A11.82,11.82,0,0,0,87,74H95.7a3.78,3.78,0,0,0,3.72-3.1l0-.25a3.75,3.75,0,0,0,.07-.7V30.09C99.53,23.44,93.64,18,86.4,18ZM24.67,74.4a4.27,4.27,0,1,1,4.27-4.27A4.27,4.27,0,0,1,24.67,74.4ZM78.8,73.15a4.27,4.27,0,1,1,1.25-3A4.23,4.23,0,0,1,78.8,73.15ZM92,66.43H87a11.81,11.81,0,0,0-22.44,0H35.89a11.82,11.82,0,0,0-22.35-.29H8.45A.42.42,0,0,1,8,65.72V50a.42.42,0,0,1,.42-.42H20a3.59,3.59,0,0,0,.75.08H92ZM24.22,42.12V33.87h10v8.25Zm17.53,0V33.87H55.1v8.25Zm20.91,0V33.87h13v8.25Zm29.31,0H83.22V33.87H92ZM23.72,28.71l4-4.33H88.58l4.12,4.33Z"/></svg>