<svg id="Слой_1" data-name="Слой 1" xmlns="http://www.w3.org/2000/svg" viewBox="0 0 100 100"><defs><style>.cls-1{fill:#fff;}</style></defs><title>calendar</title><path class="cls-1" d="M86.16,96H13.84a4,4,0,0,1-4-4V19.72a4,4,0,0,1,4-4H86.16a4,4,0,0,1,4,4V92A4,4,0,0,1,86.16,96ZM17.8,88.08H82.2V23.68H17.8Z"/><path class="cls-1" d="M29.68,35.45a4,4,0,0,1-4-4V8a4,4,0,1,1,7.92,0V31.49A4,4,0,0,1,29.68,35.45Z"/><path class="cls-1" d="M70.32,35.45a4,4,0,0,1-4-4V8a4,4,0,1,1,7.92,0V31.49A4,4,0,0,1,70.32,35.45Z"/><circle class="cls-1" cx="29.68" cy="48.25" r="3.56"/><circle class="cls-1" cx="43.23" cy="48.25" r="3.56"/><circle class="cls-1" cx="56.77" cy="48.25" r="3.56"/><circle class="cls-1" cx="70.32" cy="48.25" r="3.56"/><circle class="cls-1" cx="29.68" cy="60.52" r="3.56"/><circle class="cls-1" cx="43.23" cy="60.52" r="3.56"/><circle class="cls-1" cx="56.77" cy="60.52" r="3.56"/><circle class="cls-1" cx="70.32" cy="60.52" r="3.56"/><circle class="cls-1" cx="29.68" cy="72.8" r="3.56"/><circle class="cls-1" cx="43.23" cy="72.8" r="3.56"/><circle class="cls-1" cx="56.77" cy="72.8" r="3.56"/><circle class="cls-1" cx="70.32" cy="72.8" r="3.56"/></svg>