<svg id="Слой_1" data-name="Слой 1" xmlns="http://www.w3.org/2000/svg" viewBox="0 0 100 100"><defs><style>.cls-1{fill:#fff;}</style></defs><title>wallet</title><path class="cls-1" d="M6.39,82.21a3.75,3.75,0,0,1-3.75-3.75V10A3.75,3.75,0,0,1,6.39,6.25H74.85a3.75,3.75,0,1,1,0,7.5H10.13V78.46A3.75,3.75,0,0,1,6.39,82.21Z"/><path class="cls-1" d="M81.09,66.29V85.78h-61v-61h61V44.3h7.5V21.06a3.75,3.75,0,0,0-3.75-3.75H16.38a3.75,3.75,0,0,0-3.75,3.75V89.52a3.75,3.75,0,0,0,3.75,3.75H84.84a3.75,3.75,0,0,0,3.75-3.75V66.29Z"/><path class="cls-1" d="M94.59,73.78h-49A3.75,3.75,0,0,1,41.87,70V40.55a3.75,3.75,0,0,1,3.75-3.75h49a3.75,3.75,0,0,1,3.75,3.75V70A3.75,3.75,0,0,1,94.59,73.78Zm-45.22-7.5H90.84v-22H49.36Z"/><circle class="cls-1" cx="76.35" cy="53.79" r="3.37"/></svg>