<?xml version="1.0" encoding="iso-8859-1"?>
<!-- Generator: Adobe Illustrator 21.0.0, SVG Export Plug-In . SVG Version: 6.00 Build 0)  -->
<svg version="1.1" id="Layer_1" xmlns="http://www.w3.org/2000/svg" xmlns:xlink="http://www.w3.org/1999/xlink" x="0px" y="0px"
	 viewBox="0 0 100.353 100.352" style="enable-background:new 0 0 100.353 100.352;" xml:space="preserve">
<g>
	<path d="M66.356,56.285c-17.056,0-30.932,13.877-30.932,30.934c0,0.829,0.671,1.5,1.5,1.5h58.864c0.829,0,1.5-0.671,1.5-1.5
		C97.288,70.162,83.412,56.285,66.356,56.285z M38.463,85.719c0.782-14.708,12.994-26.434,27.893-26.434
		c14.898,0,27.11,11.726,27.892,26.434H38.463z"/>
	<path d="M65.841,53.524c9.867,0,17.895-8.026,17.895-17.893s-8.027-17.893-17.895-17.893c-9.865,0-17.891,8.026-17.891,17.893
		S55.976,53.524,65.841,53.524z M65.841,20.739c8.213,0,14.895,6.681,14.895,14.893s-6.682,14.893-14.895,14.893
		c-8.211,0-14.891-6.681-14.891-14.893S57.63,20.739,65.841,20.739z"/>
	<path d="M35.431,62.932l3,0.006l0.037-20.548c0.032-0.122,0.049-0.25,0.049-0.379V14.956l0.003-1.898h-0.003v-0.053
		c0-0.505-0.254-0.976-0.676-1.253c-0.421-0.278-0.954-0.323-1.419-0.124L3.818,25.722c-0.544,0.235-0.898,0.769-0.905,1.361
		s0.337,1.133,0.876,1.38l31.678,14.488L35.431,62.932z M8.104,27.137l27.413-11.849l-0.044,24.367L8.104,27.137z"/>
</g>
</svg>
