<?xml version="1.0" encoding="iso-8859-1"?>
<!-- Generator: Adobe Illustrator 21.1.0, SVG Export Plug-In . SVG Version: 6.00 Build 0)  -->
<svg version="1.1" id="Layer_1" xmlns="http://www.w3.org/2000/svg" xmlns:xlink="http://www.w3.org/1999/xlink" x="0px" y="0px"
	 viewBox="0 0 100.353 100.353" style="enable-background:new 0 0 100.353 100.353;" xml:space="preserve">
<g>
	<path d="M65.78,57.48v-4.32c0-0.506-0.255-0.978-0.679-1.255c-0.421-0.275-0.955-0.323-1.421-0.12l-13.424,5.855l-13.425-5.855
		c-0.463-0.203-0.998-0.156-1.421,0.12c-0.423,0.277-0.678,0.749-0.678,1.255v4.076c-12.369,5.888-20.32,18.38-20.32,32.133
		c0,0.828,0.671,1.5,1.5,1.5h68.176c0.828,0,1.5-0.672,1.5-1.5C85.588,75.863,77.838,63.463,65.78,57.48z M62.78,55.45v7.65
		l-8.771-3.825L62.78,55.45z M46.504,59.276l-8.772,3.825v-4.95c0-0.002,0-0.004,0-0.006V55.45L46.504,59.276z M34.732,60.569v4.823
		c0,0.506,0.255,0.978,0.678,1.255c0.248,0.162,0.534,0.245,0.822,0.245c0.204,0,0.408-0.041,0.6-0.125l13.425-5.855l13.424,5.855
		c0.192,0.084,0.396,0.125,0.6,0.125c0.288,0,0.574-0.083,0.821-0.245c0.424-0.277,0.679-0.749,0.679-1.255v-4.545
		c3.423,1.901,6.421,4.388,8.909,7.291c-0.021,0.029-0.046,0.053-0.066,0.083L62.182,87.868h-25.21L25.384,68.261
		c-0.026-0.044-0.058-0.079-0.088-0.119C27.91,65.096,31.085,62.505,34.732,60.569z M23.324,70.671l10.164,17.198H17.447
		C17.735,81.588,19.836,75.651,23.324,70.671z M65.734,87.868L76.638,70.65c3.505,4.996,5.624,10.947,5.915,17.219H65.734z"/>
	<path d="M49.407,50.103c11.296,0,20.485-9.19,20.485-20.486c0-0.74-0.044-1.469-0.121-2.188c0.218-0.527,0.118-1.118-0.235-1.537
		C67.778,16.371,59.43,9.131,49.407,9.131c-10.026,0-18.377,7.245-20.132,16.77c-0.218,0.26-0.354,0.592-0.354,0.958
		c0,0.207,0.042,0.405,0.118,0.584c-0.076,0.715-0.118,1.439-0.118,2.173C28.921,40.913,38.111,50.103,49.407,50.103z
		 M49.407,47.103c-9.642,0-17.486-7.844-17.486-17.486c0-0.436,0.034-0.864,0.065-1.293c2.849-0.104,8.944-0.525,12.982-2.231
		c3.099-1.308,7.211-4.045,8.897-5.205l12.918,6.817c0.069,0.628,0.11,1.265,0.11,1.911C66.893,39.259,59.049,47.103,49.407,47.103z
		 M49.407,12.131c7.616,0,14.093,4.903,16.485,11.713l-11.436-6.035c-0.5-0.265-1.108-0.225-1.571,0.105
		c-0.054,0.039-5.483,3.896-9.085,5.416c-3.31,1.398-8.47,1.833-11.318,1.968C34.414,17.742,41.258,12.131,49.407,12.131z"/>
</g>
</svg>
